# xmcd
#
# Track frame offsets: 
#        150
#        17634
#        37644
#        62576
#        74243
#        91020
#        109077
#        124881
#        140926
#        157750
#        173537
#        190671
#        206954
#        225994
#        242991
#        259603
#        274443
#        292656
#
# Disc length: 4158 seconds
#
# Revision: 0
# Processed by: cddbd v1.5.2PL0 Copyright (c) Steve Scherf et al.
# Submitted via: ExactAudioCopyFreeDBPlugin 1.0
#
DISCID=f9103c12
DTITLE=Various Artist - Euro 2000
DYEAR=2000
DGENRE=Dance
TTITLE0=The Joker - Let The Beat Go On
TTITLE1=DJ Miko - What's Up 2000
TTITLE2=Clubhouse - You and I (Disco Mix)
TTITLE3=Orlando - Breaking My Heart
TTITLE4=Libra - Take Me With You Love
TTITLE5=Mig 33 - Give Me Your Love
TTITLE6=Wildside - In My Arms
TTITLE7=Ken Lazslo - Summer Nights
TTITLE8=East Side Beat - Keep Movin' On
TTITLE9=T-Sign - Hide and Seek
TTITLE10=Mig 29 - Can't Resist
TTITLE11=DJ Plastico - Locos Pocos
TTITLE12=Essential Style - Stay With Me Forever
TTITLE13=Anticapella feat. Zeita - Deep
TTITLE14=Betty V - Emotions
TTITLE15=Dragana - Secret Of My Body
TTITLE16=Antico - Don't U Fly
TTITLE17=C and C Dream - I Love You Baby
EXTD=
EXTT0=
EXTT1=
EXTT2=
EXTT3=
EXTT4=
EXTT5=
EXTT6=
EXTT7=
EXTT8=
EXTT9=
EXTT10=
EXTT11=
EXTT12=
EXTT13=
EXTT14=
EXTT15=
EXTT16=
EXTT17=
PLAYORDER=
